<svg width="200" height="200" viewBox="0 0 200 200" fill="none" xmlns="http://www.w3.org/2000/svg">
  <!-- Case/Bezel -->
  <circle cx="100" cy="100" r="90" fill="#E5E7EB" stroke="#6B7280" stroke-width="8"/>
  <circle cx="100" cy="100" r="80" fill="white"/>
  
  <!-- Cardinal Markings -->
  <path d="M100 25 V35 M100 165 V175 M25 100 H35 M165 100 H175" stroke="#374151" stroke-width="5" stroke-linecap="round"/>
  <path d="M153 47 L146 54 M54 146 L47 153 M47 47 L54 54 M146 146 L153 153" stroke="#9CA3AF" stroke-width="3" stroke-linecap="round"/>

  <!-- Needle -->
  <!-- North (Red) -->
  <path d="M100 30 L115 100 L85 100 Z" fill="#EF4444"/>
  <path d="M100 30 L100 100 L115 100 Z" fill="#DC2626"/> <!-- Shading for 3D effect -->
  
  <!-- South (Silver/White) -->
  <path d="M100 170 L115 100 L85 100 Z" fill="#F3F4F6"/>
  <path d="M100 170 L100 100 L85 100 Z" fill="#D1D5DB"/> <!-- Shading for 3D effect -->

  <!-- Center Pin -->
  <circle cx="100" cy="100" r="6" fill="#4B5563"/>
  <circle cx="100" cy="100" r="2" fill="#9CA3AF"/>
</svg>
